<svg xmlns="http://www.w3.org/2000/svg" xmlns:xlink="http://www.w3.org/1999/xlink" viewBox="0,0,256,256" width="48px" height="48px" fill-rule="nonzero"><g fill="none" fill-rule="nonzero" stroke="none" stroke-width="1" stroke-linecap="butt" stroke-linejoin="miter" stroke-miterlimit="10" stroke-dasharray="" stroke-dashoffset="0" font-family="none" font-weight="none" font-size="none" text-anchor="none" style="mix-blend-mode: normal"><g transform="scale(0.5,0.5)"><path d="M469.9,187.9c-16.1,-46.6 -46.7,-87.1 -91.3,-109.6c-50.9,-25.7 -111,-28.1 -166.4,-19.3c-49.7,7.9 -102.2,25.9 -139.5,61.1c-19.6,18.5 -34.8,40.9 -42.7,66.8c-8,26 -10.4,53.1 -12.1,80.1c-0.1,1.1 -0.4,2 -1,2.7c0,0.2 0.1,0.5 0.1,0.8c0,52.9 -1.1,108.3 30.1,153.9c25.3,37.1 64.5,61.5 107.2,73.7c88,25.2 194.2,9.6 264.9,-50.8c74.1,-63.3 80.9,-172.3 50.7,-259.4zM371.1,158.1c-1.5,9.9 -1.2,19.9 -7.8,27.3c-0.4,1.6 -1.4,3 -3.3,3.8c-5.4,2.3 -11.4,1.6 -17.2,2c-4.8,0.3 -9.7,0.7 -14.5,1.5c-7.8,1.3 -16,3.4 -22.5,8c-17.4,12.3 -16.7,36.8 -18.2,56c6.7,0.4 13.3,1.4 20,1.8c6.5,0.3 15.1,1.3 22.2,-0.4c2.9,0.6 5.7,1.4 8.2,2.8c1.7,1 2.8,2.5 3.5,4.2c-0.1,0.1 -0.2,0.1 -0.3,0.2c0,8.9 -0.4,17.9 -1.8,26.6c-1.4,8.1 -4,24.1 -13.8,26.2c-1.5,0.3 -3.3,0.1 -4.7,-0.6c-0.4,0.2 -0.8,0.4 -1.3,0.6c-7,2.1 -14.1,1.9 -21.3,1.4c-5,-0.4 -10.1,-0.9 -15.1,-0.1c-0.3,0.4 -0.6,0.8 -1,1.1c-1,9.8 -2,19.7 -3.3,29.5c-2,15.1 -4.4,30.3 -7.7,45.2c-2.4,11 -5.3,22.2 -13.8,30.2c-14.8,14 -35.8,16 -55.2,16.9c-27.7,1.3 -55.5,5.1 -83.3,3.6c-0.1,0 -0.1,0 -0.1,0h-3c-2.8,0 -6,-1.9 -5.9,-5.1c0.4,-19.5 10.9,-37.3 17.1,-55.4c0.8,-2.3 3.8,-3.3 6,-3c17.4,2.6 32.6,-10.6 40.1,-25.3c4.3,-8.5 5.6,-16.7 6.9,-26c0.7,-5.4 1.6,-10.9 2.5,-16.3c-7.4,-0.6 -14.7,-1.7 -22.1,-2.2c-5.9,-0.4 -11.8,-0.8 -17.6,-0.6c-2.3,0.1 -4.6,0.2 -6.8,0.6c0.2,0 -0.5,0.2 -1.1,0.4v0c-2.9,0.1 -5.8,0.2 -8.7,0.5c-1,-1 -1.6,-2.5 -1.1,-4.4c0,-0.1 0,-0.2 0,-0.3c0.2,-10.1 3.8,-19 6.7,-28.5c1.3,-4.3 2.8,-9 2.5,-13.6c-0.4,-4.9 1.8,-6.6 5.3,-9.4c1.6,-1.3 3.2,-1.4 4.6,-0.9c8,0.1 16.1,1.1 24.1,1.4c4.6,0.2 9.3,0.4 14,0c1.4,-0.1 2.9,-0.1 4.3,-0.5c2.1,-0.6 1.9,-1.2 0.8,0.6c1,-1.6 2.3,-2.4 3.8,-2.6c0.2,-2.3 0.4,-4.6 0.5,-6.9c0.9,-14.3 2.1,-28.7 4.4,-42.8c3.8,-23.6 9.8,-49.7 27.5,-67.1c14.9,-14.7 34.9,-20.3 55.4,-21.4c31.9,-1.7 63.9,-1.6 95.8,-0.1c3.1,0.1 5.6,1.8 5.9,5.1c0.8,12.9 -7.7,23.6 -9.6,36z" fill="#ffffff"></path><path d="M299.7,127.3c-18.2,0.6 -37.5,0.3 -54.2,8.5c-20.2,9.8 -30.1,30.9 -35.1,51.7c-3.4,14.1 -5.5,28.4 -6.9,42.8c-1,10.6 -1.5,21.3 -2.4,32c-1.3,1.4 -2.7,2.8 -4,4.2h-4.1c-5.8,3.5 -14.8,2.7 -20.9,2.5c-9.1,-0.3 -18.2,-1.4 -27.3,-1.5c0,0.5 0,1 0,1.5c-0.1,2 -0.3,4 -0.7,6c-0.7,3.7 -1.8,7.2 -3,10.8c-1.7,5.1 -3.6,10.2 -4.7,15.5c6.8,-0.9 14.7,0.1 19.3,0.4c7.3,0.4 14.5,1.1 21.7,1.8c2.7,0.3 5.5,0.6 8.2,0.8c0.6,0.1 1.2,0.1 1.8,0.2c1.1,0.5 2.2,1.1 3.2,1.7c1,3.6 1.7,7.3 2.2,11c-0.3,1.6 -0.6,3.3 -0.8,4.9c-2,12.8 -2.5,25.9 -8.3,37.7c-9.2,18.9 -26.9,34.8 -48.5,34c-5,13.4 -12.6,27.1 -14.4,41.4c25.5,1.3 51.1,-2.5 76.5,-3.6c16.2,-0.7 35.8,-0.9 49.2,-11.4c9.2,-7.2 11.6,-17.8 13.9,-28.7c3.2,-15 5.6,-30.1 7.5,-45.2c1.1,-9 2.1,-18.1 3,-27.1c-1.3,-2 -1.2,-4.9 0.7,-6.8c0,-0.2 0,-0.5 0.1,-0.7h0.7c0.4,-0.3 0.7,-0.5 1.2,-0.7c13.5,-6.1 28.2,1.1 42,-3c1.1,-0.3 2.1,-0.3 3,-0.1c1.1,-2.1 3.5,-3.1 5.7,-3c0.9,-2 1.6,-4.4 2,-5.8c1.2,-4.2 2,-8.5 2.5,-12.9c0.7,-5.6 1,-11.3 1.1,-17c-6.4,1.1 -13.1,0.9 -19.3,0.6c-5.9,-0.3 -11.8,-0.7 -17.6,-1.3c-3.2,-0.3 -7.6,-0.8 -9.7,-0.8c-1.3,0 -2.3,-0.4 -3.2,-1h-4.6c0.3,-4.1 0.7,-8.1 1,-12.2c1.9,-21.9 2,-48 22,-62.2c7.5,-5.3 16.3,-8.2 25.2,-9.9c5.1,-0.9 10.2,-1.5 15.4,-1.9c4.4,-0.3 9.4,0.2 13.8,-0.7c0.1,-0.1 0.2,-0.2 0.4,-0.3c7.7,-5.7 5.1,-17.8 7.2,-26.1c2.1,-8.3 7.4,-16.9 8.4,-25.6c-22.9,-1 -46,-1.2 -69.2,-0.5z" fill="#4caf50"></path><path d="M483.6,194.8c-14.2,-46.9 -40.9,-88.3 -82,-115.7c-46.4,-31 -105.3,-38.4 -159.8,-34.4c-51.7,3.8 -104.6,17.9 -148.6,46c-21.6,13.8 -40.9,31.9 -55,53.4c-14.9,22.7 -22.5,48.8 -26.6,75.4c-2.3,15.1 -3.4,30.3 -4.4,45.6c-0.1,0.9 0.1,1.8 0.4,2.6c-0.9,0.9 -1.5,2.2 -1.5,3.8c0,30.1 -0.6,60.4 4.6,90.2c4.8,27.1 15.2,52.9 31.6,75.1c29.2,39.5 73.5,63.3 120.4,75c88.9,22.2 194.2,3.7 264.5,-57.1c74.1,-64.1 83.3,-170.9 56.4,-259.9zM419.2,447.3c-70.8,60.4 -176.9,76 -264.9,50.8c-42.7,-12.2 -81.9,-36.6 -107.2,-73.7c-31.2,-45.6 -30.1,-101 -30.1,-153.9c0,-0.3 0,-0.5 -0.1,-0.8c0.5,-0.7 0.9,-1.6 1,-2.7c1.7,-27 4.1,-54.1 12.1,-80.1c7.9,-25.9 23.1,-48.3 42.7,-66.8c37.3,-35.2 89.8,-53.2 139.5,-61.1c55.5,-8.8 115.5,-6.4 166.4,19.3c44.6,22.5 75.1,63.1 91.3,109.6c30.2,87.1 23.4,196.1 -50.7,259.4z" fill="#000000"></path><path d="M380.2,122.1c-0.3,-3.3 -2.9,-4.9 -5.9,-5.1c-31.9,-1.5 -63.9,-1.6 -95.8,0.1c-20.5,1.1 -40.5,6.8 -55.4,21.4c-17.7,17.4 -23.7,43.5 -27.5,67.1c-2.3,14.2 -3.5,28.5 -4.4,42.8c-0.1,2.3 -0.3,4.6 -0.5,6.9c-1.5,0.3 -2.8,1.1 -3.8,2.6c1.1,-1.8 1.4,-1.1 -0.8,-0.6c-1.3,0.4 -2.9,0.4 -4.3,0.5c-4.6,0.4 -9.3,0.2 -14,0c-8,-0.3 -16,-1.3 -24.1,-1.4c-1.4,-0.5 -3,-0.4 -4.6,0.9c-3.5,2.8 -5.7,4.6 -5.3,9.4c0.4,4.6 -1.2,9.3 -2.5,13.6c-2.9,9.5 -6.4,18.4 -6.7,28.5c0,0.1 0,0.2 0,0.3c-0.4,1.9 0.1,3.3 1.1,4.4c2.9,-0.3 5.8,-0.4 8.7,-0.5v0c0.6,-0.2 1.4,-0.4 1.1,-0.4c2.2,-0.4 4.5,-0.5 6.8,-0.6c5.9,-0.2 11.8,0.2 17.6,0.6c7.3,0.6 14.7,1.6 22.1,2.2c-0.9,5.4 -1.7,10.8 -2.5,16.3c-1.2,9.3 -2.5,17.5 -6.9,26c-7.5,14.7 -22.6,27.8 -40.1,25.3c-2.2,-0.3 -5.2,0.6 -6,3c-6.1,18 -16.7,35.9 -17.1,55.4c-0.1,3.2 3.1,5.1 5.9,5.1h3c0.1,0 0.1,0 0.1,0c27.8,1.5 55.6,-2.3 83.3,-3.6c19.4,-0.9 40.5,-3 55.2,-16.9c8.5,-8 11.4,-19.2 13.8,-30.2c3.3,-14.9 5.7,-30 7.7,-45.2c1.3,-9.8 2.4,-19.6 3.3,-29.5c0.4,-0.3 0.7,-0.7 1,-1.1c4.9,-0.8 10,-0.3 15.1,0.1c7.2,0.6 14.3,0.7 21.3,-1.4c0.5,-0.1 0.9,-0.3 1.3,-0.6c1.4,0.7 3.1,0.9 4.7,0.6c9.8,-2.1 12.4,-18.1 13.8,-26.2c1.5,-8.8 1.8,-17.7 1.8,-26.6c0.1,-0.1 0.2,-0.1 0.3,-0.2c-0.7,-1.7 -1.8,-3.3 -3.5,-4.2c-2.5,-1.5 -5.3,-2.2 -8.2,-2.8c-7.1,1.6 -15.7,0.7 -22.2,0.4c-6.7,-0.3 -13.3,-1.3 -20,-1.8c1.5,-19.2 0.8,-43.7 18.2,-56c6.6,-4.7 14.7,-6.8 22.5,-8c4.8,-0.8 9.6,-1.2 14.5,-1.5c5.8,-0.4 11.8,0.3 17.2,-2c1.9,-0.8 2.9,-2.2 3.3,-3.8c6.6,-7.4 6.3,-17.4 7.8,-27.3c2.4,-12.4 10.9,-23.1 9.6,-36zM360.8,153.4c-2.1,8.2 0.6,20.4 -7.2,26.1c-0.1,0.1 -0.2,0.2 -0.4,0.3c-4.4,0.9 -9.4,0.4 -13.8,0.7c-5.2,0.4 -10.3,1 -15.4,1.9c-9,1.7 -17.7,4.5 -25.2,9.9c-19.9,14.1 -20,40.2 -22,62.2c-0.4,4.1 -0.7,8.1 -1,12.2h4.6c0.9,0.6 1.9,1 3.2,1c2,0 6.5,0.5 9.7,0.8c5.9,0.6 11.7,1 17.6,1.3c6.2,0.3 12.9,0.5 19.3,-0.6c-0.1,5.7 -0.4,11.3 -1.1,17c-0.5,4.3 -1.3,8.6 -2.5,12.9c-0.4,1.5 -1.1,3.9 -2,5.8c-2.2,-0.1 -4.6,0.9 -5.7,3c-0.9,-0.2 -1.9,-0.2 -3,0.1c-13.8,4.1 -28.5,-3.1 -42,3c-0.4,0.2 -0.8,0.4 -1.2,0.7h-0.7c0,0.2 0,0.5 -0.1,0.7c-1.9,1.9 -2,4.8 -0.7,6.8c-0.9,9 -1.9,18.1 -3,27.1c-1.9,15.2 -4.4,30.3 -7.5,45.2c-2.3,10.9 -4.8,21.5 -13.9,28.7c-13.4,10.6 -33,10.7 -49.2,11.4c-25.5,1.1 -51,5 -76.5,3.6c1.7,-14.2 9.4,-28 14.4,-41.4c21.6,0.7 39.3,-15.2 48.5,-34c5.8,-11.9 6.3,-24.9 8.3,-37.7c0.3,-1.6 0.5,-3.3 0.8,-4.9c-0.4,-3.7 -1.2,-7.4 -2.2,-11c-1,-0.7 -2.1,-1.2 -3.2,-1.7c-0.6,-0.1 -1.2,-0.1 -1.8,-0.2c-2.7,-0.2 -5.5,-0.5 -8.2,-0.8c-7.2,-0.7 -14.5,-1.4 -21.7,-1.8c-4.6,-0.3 -12.5,-1.3 -19.3,-0.4c1.1,-5.3 3,-10.4 4.7,-15.5c1.2,-3.5 2.2,-7.1 3,-10.8c0.4,-1.9 0.6,-4 0.7,-6c0,-0.5 0,-1 0,-1.5c9.1,0.1 18.2,1.3 27.3,1.5c6,0.2 15.1,1 20.9,-2.5h4.1c1.3,-1.4 2.7,-2.8 4,-4.2c0.9,-10.6 1.4,-21.3 2.4,-32c1.4,-14.4 3.5,-28.8 6.9,-42.8c5,-20.8 14.9,-41.9 35.1,-51.7c16.7,-8.2 36.1,-7.9 54.2,-8.5c23.1,-0.7 46.3,-0.5 69.5,0.4c-1.3,8.8 -6.6,17.4 -8.7,25.7z" fill="#000000"></path></g></g></svg>